<svg viewBox="0 0 1080 159" version="1.1" xmlns="http://www.w3.org/2000/svg" data-name="Layer 1" id="Layer_1">
  <defs>
    <style>
      .cls-1 {
        fill: #647861;
        stroke-width: 0px;
      }
    </style>
  </defs>
  <path d="M1064.9,10.8c2.9,0,5.8.8,8.3,2.4s4.4,3.9,5.6,6.6c1.1,2.7,1.5,5.7.9,8.6-.6,2.9-1.9,5.5-4,7.6-2.1,2.1-4.7,3.5-7.6,4.1-2.9.6-5.9.3-8.6-.8-2.7-1.1-5.1-3-6.7-5.5-1.6-2.4-2.5-5.3-2.5-8.3,0-3.9,1.6-7.6,4.3-10.4,2.7-2.8,6.4-4.4,10.3-4.5ZM1064.9,38.7c2.6,0,5.2-.7,7.4-2.1,2.2-1.4,3.9-3.5,4.9-5.9s1.3-5,.8-7.6-1.7-4.9-3.6-6.8c-1.8-1.9-4.2-3.1-6.7-3.6-2.6-.5-5.2-.3-7.6.7-2.4,1-4.5,2.7-5.9,4.8-1.5,2.2-2.2,4.7-2.2,7.3s1.4,6.8,3.8,9.2c2.4,2.5,5.7,3.9,9.2,3.9ZM1062.5,31.4c0,.7,0,1.5.2,2.2h-3v-13.9c0-.7,0-1.4-.3-2.1h3.8c2.8,0,6.6.6,6.6,4.3,0,.9-.3,1.8-.9,2.5-.6.7-1.4,1.2-2.3,1.5,2.8,3.8,3.4,4.7,4.1,5.6.6.8,1.2,1.5,1.9,2.2h-3.5l-5.3-7.1h-1.3v4.9ZM1062.5,24.9h.5c2.8,0,3.8-1.1,3.8-3s-1.2-2.9-3.4-2.9h-.9v5.8Z" class="cls-1"></path>
  <path d="M135,156.3h-33.4c-3.8-5-7.9-9.7-12.3-14.2l-55.5-55.7-9.8,10.1v39.2c0,6.9.9,13.8,2.5,20.5H2.7V19.8C2.9,13.1,2,6.4,0,0h25.2c-1,5.4-1.4,10.9-1.1,16.4v60.2l55.3-56.4C85.8,14.1,91.6,7.3,96.7,0h23.2c-5.9,5-11.5,10.3-16.7,16l-54.8,55.7,64.4,64.4c7.1,7.1,14.5,13.8,22.3,20.1Z" class="cls-1"></path>
  <path d="M259.2,85c.1,9.8-1.8,19.5-5.6,28.5-3.8,9.1-9.4,17.3-16.6,24.2-7.1,6.9-15.6,12.3-25,16-9.3,3.6-19.3,5.4-29.4,5.2-42.6,0-74.6-31.8-74.6-74.2-.2-9.8,1.7-19.5,5.4-28.6,3.8-9.1,9.4-17.3,16.5-24.2,7.1-6.9,15.6-12.3,25-16,9.3-3.6,19.3-5.4,29.4-5.2,10-.1,19.9,1.7,29.1,5.4,9.2,3.7,17.6,9.2,24.6,16.1,7,6.9,12.5,15.2,16.1,24.2,3.6,9.1,5.3,18.7,5,28.4ZM237,85.2c0-36.8-21.1-62-53.5-62s-53.3,24.4-53.3,61.4,20.7,61.8,53.1,61.8,53.7-24.4,53.7-61.2Z" class="cls-1"></path>
  <path d="M262.5,156.3h-16.8L308.1,10.8h4.1l55.2,125c3.2,7,6.7,13.8,10.7,20.4h-23.6c-2.2-6.9-4.7-13.8-7.6-20.4-4.7-9.7-6.8-15.1-6.8-15.1h-64.8l-7,16.5c-2.6,6.1-4.6,12.5-5.7,19M280.5,108.6h54l-27.7-63.4-26.3,63.4Z" class="cls-1"></path>
  <path d="M456.8,143.9c6.2,0,12.3-.7,18.4-2.1l-1.5,14.4h-87.9V31.6c0-6.1-.7-12.3-2.5-18.2h22.8c-.7,5-1,10-.8,15.1v115.4h51.4Z" class="cls-1"></path>
  <path d="M483.9,156.3h-16.8l62.4-145.5h4.1l55.2,125c3.2,7,6.7,13.8,10.7,20.4h-23.6c-2.2-6.9-4.7-13.8-7.6-20.4-4.7-9.7-6.8-15.1-6.8-15.1h-64.8l-7,16.5c-2.6,6.1-4.6,12.5-5.7,19ZM502,108.6h53.9l-27.7-63.4-26.2,63.4Z" class="cls-1"></path>
  <path d="M761.4,140.5l-1.6,15.8h-98.3V19.8c0-6.7-.8-13.4-2.7-19.8h95.8l1.6,15.8c-6.7-1.5-13.6-2.3-20.5-2.3h-52.2v55.9h43.5c7.1,0,14.1-.8,21-2.5v18.1c-6.9-1.5-13.9-2.2-21-2.3h-43.5v60h57.2c7,0,13.9-.8,20.7-2.3" class="cls-1"></path>
  <path d="M890.4,126.7l6,8.9c-7.5,7.5-16.5,13.4-26.4,17.4-9.9,4-20.5,6-31.1,6-9.8.4-19.6-1.2-28.8-4.7-9.2-3.5-17.5-8.8-24.5-15.6-7-6.8-12.5-15-16.2-24-3.7-9-5.5-18.7-5.2-28.4-.2-10,1.6-19.9,5.3-29.1,3.7-9.2,9.3-17.6,16.5-24.7,7.1-7,15.6-12.6,25-16.3s19.4-5.5,29.4-5.3c16.9.1,33.5,3.5,49.1,9.9l2.3,21.9h-2.3c-12.9-12.3-30.1-19.3-48.1-19.4-33.9,0-55.5,25.4-55.5,63.2s24,58.4,55.7,58.4c18,0,35.3-6.5,48.9-18.1Z" class="cls-1"></path>
  <path d="M1053,85c.1,9.8-1.7,19.5-5.5,28.6-3.7,9.1-9.3,17.3-16.3,24.2-7,6.9-15.3,12.3-24.5,16-9.2,3.6-19,5.4-28.9,5.2-41.9,0-73.3-31.8-73.3-74.2-.2-9.8,1.6-19.5,5.3-28.6,3.7-9.1,9.2-17.3,16.2-24.2,7-6.9,15.3-12.3,24.5-16,9.2-3.6,19-5.4,28.9-5.2,9.8-.1,19.6,1.7,28.6,5.4,9.1,3.7,17.3,9.2,24.2,16.1,6.9,6.9,12.2,15.2,15.8,24.2,3.6,9.1,5.2,18.7,4.9,28.4ZM1031.2,85.2c0-36.8-20.7-62-52.6-62s-52.4,24.4-52.4,61.4,20.3,61.8,52.2,61.8,52.8-24.4,52.8-61.2Z" class="cls-1"></path>
</svg>